<?xml version="1.0" standalone="no"?>
<!DOCTYPE svg PUBLIC "-//W3C//DTD SVG 1.1//EN" "http://www.w3.org/Graphics/SVG/1.1/DTD/svg11.dtd">
<svg class="icon" width="64px" height="64.00px" fill="currentColor" viewBox="0 0 1024 1024" version="1.1"
  xmlns="http://www.w3.org/2000/svg">
   <path d="M51.2 51.2m153.6 0l609.28 0q153.6 0 153.6 153.6l0 609.28q0 153.6-153.6 153.6l-609.28 0q-153.6 0-153.6-153.6l0-609.28q0-153.6 153.6-153.6Z" fill="#F19149" opacity=".2" p-id="9052" data-spm-anchor-id="a313x.7781069.0.i15" class="selected"></path>
  <path d="M513.77152 477.184l308.59264-175.616c-1.42848-1.024-2.81088-2.07872-4.33152-2.98496l-271.49824-161.44384a65.024 65.024 0 0 0-65.13152-0.7936L206.0544 291.11296a64.512 64.512 0 0 0-5.51936 3.584z m28.27776 50.08384l-4.3776 355.18976 275.1232-154.624a65.2544 65.2544 0 0 0 33.28-56.09984L849.92 355.49184c0-1.11104-0.13312-2.2016-0.17408-3.3024z m-57.45152-0.512L172.9536 345.216c-0.03072 0.67072-0.14848 1.32096-0.15872 1.9968L168.96 663.43424a65.26976 65.26976 0 0 0 31.87712 56.89856l271.49312 161.45408a64.73216 64.73216 0 0 0 7.86432 3.97312z" fill="#F19149" p-id="9053"></path>
</svg>