<?xml version="1.0" standalone="no"?><!DOCTYPE svg PUBLIC "-//W3C//DTD SVG 1.1//EN" "http://www.w3.org/Graphics/SVG/1.1/DTD/svg11.dtd"><svg class="icon" width="64px" height="64.00px" viewBox="0 0 1024 1024" version="1.1" xmlns="http://www.w3.org/2000/svg"><path d="M928 723.2h-64v-198.4C864 341.333333 714.666667 192 531.2 192S198.4 341.333333 198.4 524.8v198.4h-64v-198.4C134.4 305.066667 311.466667 128 531.2 128s396.8 177.066667 396.8 396.8v198.4z"  /><path d="M277.333333 866.133333h-21.333333c-68.266667 0-121.6-55.466667-121.6-121.6V661.333333c0-68.266667 55.466667-121.6 121.6-121.6h21.333333c68.266667 0 121.6 55.466667 121.6 121.6v83.2c0 68.266667-55.466667 121.6-121.6 121.6z m-21.333333-264.533333c-32 0-57.6 25.6-57.6 57.6v83.2c0 32 25.6 57.6 57.6 57.6h21.333333c32 0 57.6-25.6 57.6-57.6V661.333333c0-32-25.6-57.6-57.6-57.6h-21.333333zM806.4 866.133333h-19.2c-68.266667 0-121.6-55.466667-121.6-121.6V661.333333c0-68.266667 55.466667-121.6 121.6-121.6h19.2c68.266667 0 121.6 55.466667 121.6 121.6v83.2c0 68.266667-55.466667 121.6-121.6 121.6z m-21.333333-264.533333c-32 0-57.6 25.6-57.6 57.6v83.2c0 32 25.6 57.6 57.6 57.6h19.2c32 0 57.6-25.6 57.6-57.6V661.333333c0-32-25.6-57.6-57.6-57.6h-19.2z"  /><path d="M753.066667 467.2c-12.8 0-25.6-8.533333-29.866667-21.333333-21.333333-61.866667-76.8-89.6-76.8-89.6-14.933333-8.533333-21.333333-27.733333-12.8-42.666667s27.733333-21.333333 42.666667-12.8c2.133333 2.133333 76.8 40.533333 106.666666 125.866667 6.4 17.066667-2.133333 34.133333-19.2 40.533333h-10.666666z" fill="#FBAA00" /></svg>