<?xml version="1.0" standalone="no"?><!DOCTYPE svg PUBLIC "-//W3C//DTD SVG 1.1//EN" "http://www.w3.org/Graphics/SVG/1.1/DTD/svg11.dtd"><svg class="icon" width="64px" height="64.00px" viewBox="0 0 1024 1024" version="1.1" xmlns="http://www.w3.org/2000/svg"><path d="M512 992c-14.933 0-29.867-4.267-42.667-10.667L128 782.933C102.4 768 85.333 740.267 85.333 708.267V315.733c0-29.866 17.067-57.6 42.667-74.666L469.333 44.8c25.6-14.933 59.734-14.933 85.334 0L896 241.067c25.6 14.933 42.667 42.666 42.667 74.666V710.4c0 29.867-17.067 57.6-42.667 74.667L554.667 981.333C541.867 987.733 526.933 992 512 992z m0-874.667l-341.333 198.4V710.4L512 906.667 853.333 710.4V315.733l21.334-38.4-21.334 36.267L512 117.333z" fill="#D4237A" /><path d="M512 704c-106.667 0-192-85.333-192-192s85.333-192 192-192 192 85.333 192 192-85.333 192-192 192z m0-298.667c-59.733 0-106.667 46.934-106.667 106.667S452.267 618.667 512 618.667 618.667 571.733 618.667 512 571.733 405.333 512 405.333z" fill="#D4237A" /></svg>