<?xml version="1.0" standalone="no"?><!DOCTYPE svg PUBLIC "-//W3C//DTD SVG 1.1//EN" "http://www.w3.org/Graphics/SVG/1.1/DTD/svg11.dtd"><svg class="icon" width="64px" height="64.00px" viewBox="0 0 1024 1024" version="1.1" xmlns="http://www.w3.org/2000/svg"><path d="M904.2 393.8c2.1-14.7-1.1-28-9.2-37.6-7.5-8.9-18.7-13.9-31.4-13.9h-20.2v-91c0-40.4-32.9-73.3-73.3-73.3H220.2C155 178 102 231 102 296.1v481.4c0 59.8 48.7 108.5 108.5 108.5h639.3c16.3 0 31.6-6.9 42.1-18.9 9.7-11.1 14.1-25.2 12.4-39.7l-0.1-433.6z m-39.8 437.6c0.6 4.4-1.2 7.6-2.8 9.5-2.8 3.3-7.2 5.1-11.9 5.1H210.5c-37.7 0-68.5-30.7-68.5-68.5V296.1c0-43.1 35.1-78.2 78.2-78.2h549.9c18.4 0 33.3 14.9 33.3 33.3v63.2h-1.6c-11.4-38.3-54.1-65-92.8-65H258.6c-36.3 0-65.8 29.5-65.8 65.8v1.3c0 36.3 29.5 65.8 65.8 65.8H864.5c0.3 1 0.6 3.1 0 6.5l-0.3 1.7V830l0.2 1.4z m-99.7-496.9v7.8H258.6c-14.2 0-25.8-11.6-25.8-25.8v-1.3c0-14.2 11.6-25.8 25.8-25.8H709c13 0 27.4 5.5 38.6 14.6 10.9 8.9 17.1 20 17.1 30.5z" fill="#4C6070" /><path d="M519.5 174l-168 168h40.2l84.1-84.1 14.1 14.1c15.2 15.2 39.9 15.2 55.1 0l14.1-14.1 84.1 84.1h44.3l-168-168z" fill="#FFBD5C" /><path d="M519.5 117.4L254.9 382h153.4l69.3-69.3c12.3 7.2 26.1 10.8 39.9 10.8 13.8 0 27.6-3.6 39.9-10.8l69.3 69.3h157.5L519.5 117.4z m39.7 140.5L545 272.1c-15.2 15.2-39.9 15.2-55.1 0L475.8 258l-84.1 85h-40.2l168-169 168.1 169h-44.3l-84.1-85.1z" fill="#4C6070" /><path d="M893.2 527.2h-288c-42.1 0-76.3 34.2-76.3 76.3s34.2 76.3 76.3 76.3h287.9c4.7 0 8.6-3.9 8.6-8.6V535.8c0.1-4.7-3.9-8.6-8.5-8.6z" fill="#FFBD5C" /><path d="M893.2 487.2h-288c-64.2 0-116.3 52.2-116.3 116.3s52.2 116.3 116.3 116.3h287.9c26.8 0 48.6-21.8 48.6-48.6V535.8c0.1-26.8-21.7-48.6-48.5-48.6z m8.6 184.1c0 4.7-3.9 8.6-8.6 8.6h-288c-42.1 0-76.3-34.2-76.3-76.3s34.2-76.3 76.3-76.3h287.9c4.7 0 8.6 3.9 8.6 8.6v135.4h0.1z" fill="#4C6070" /><path d="M612.8 585.5c-8.9 0-16.1 7.2-16.1 16.1s7.2 16.1 16.1 16.1c8.9 0 16.1-7.2 16.1-16.1s-7.2-16.1-16.1-16.1z" fill="#FFFFFF" /><path d="M612.8 545.5c-31 0-56.1 25.2-56.1 56.1s25.2 56.1 56.1 56.1 56.1-25.2 56.1-56.1-25.1-56.1-56.1-56.1z m0 72.3c-8.9 0-16.1-7.2-16.1-16.1s7.2-16.1 16.1-16.1c8.9 0 16.1 7.2 16.1 16.1s-7.2 16.1-16.1 16.1z" fill="#4C6070" /></svg>